# xmcd
#
# Track frame offsets:
#	150
#	26464
#	43794
#	63255
#	71137
#	90318
#	94161
#	110111
#	132636
#	155579
#	160327
#	181459
#	196057
#	212730
#	220765
#	237397
#	239443
#	255295
#	271843
#	280607
#	291318
#
# Disc length: 4055 seconds
#
# Revision: 0
# Processed by: cddbd v1.5.1PL0 Copyright (c) Steve Scherf et al.
# Submitted via: dBpowerAMP V4.0
#
DISCID=370fd515
DTITLE=DAC - Didactici
DYEAR=2002
DGENRE=Hiphop
TTITLE0=De Coöp
TTITLE1=De Grote Schoonmaak
TTITLE2=De Laatste Der Mohikanen
TTITLE3=De Shitness
TTITLE4=Meesterrappers
TTITLE5=Te Dik Refrein
TTITLE6=Zaterdagmiddag
TTITLE7=De Amersfoortse Pracht
TTITLE8=Maak Kennis Met Klasse
TTITLE9=Rappen Als Negers
TTITLE10=Dat Ene Nummer
TTITLE11=Maak Plaats
TTITLE12=Zoveel Meer
TTITLE13=Rappatak
TTITLE14=Van Blazen
TTITLE15=Je Kent De Naam DAC
TTITLE16=Wekelijk Opmerkelijk
TTITLE17=Boykots
TTITLE18=Excuses
TTITLE19=Fruitmand Uit Duitsland
TTITLE20=Bosanova
EXTD=29-05-05, by Mip 
EXTT0=
EXTT1=
EXTT2=
EXTT3=
EXTT4=
EXTT5=
EXTT6=
EXTT7=
EXTT8=
EXTT9=
EXTT10=
EXTT11=
EXTT12=
EXTT13=
EXTT14=
EXTT15=
EXTT16=
EXTT17=
EXTT18=
EXTT19=
EXTT20=
PLAYORDER=
